<mxfile host="app.diagrams.net" agent="Mozilla/5.0 (Windows NT 10.0; Win64; x64) AppleWebKit/537.36 (KHTML, like Gecko) Chrome/135.0.0.0 Safari/537.36" version="26.2.14">
  <diagram name="第1頁" id="z9Y-VIugHpWD9IT3PFwi">
    <mxGraphModel dx="2641" dy="1643" grid="1" gridSize="10" guides="1" tooltips="1" connect="1" arrows="1" fold="1" page="1" pageScale="1" pageWidth="1169" pageHeight="827" math="0" shadow="0">
      <root>
        <mxCell id="0" />
        <mxCell id="1" parent="0" />
        <mxCell id="xAfZzHrXT0KWbqm_I0p1-2" value="&lt;table class=&quot;MsoTableGrid&quot; border=&quot;1&quot; cellspacing=&quot;0&quot; cellpadding=&quot;0&quot; style=&quot;border-collapse:collapse;border:none;mso-border-alt:solid windowtext .5pt;&#xa; mso-yfti-tbllook:1184;mso-padding-alt:0cm 5.4pt 0cm 5.4pt&quot;&gt;&#xa; &lt;tbody&gt;&lt;tr style=&quot;mso-yfti-irow:0;mso-yfti-firstrow:yes&quot;&gt;&#xa;  &lt;td width=&quot;56&quot; colspan=&quot;2&quot; style=&quot;width:42.3pt;border:solid windowtext 1.0pt;&#xa;  mso-border-alt:solid windowtext .5pt;padding:0cm 5.4pt 0cm 5.4pt&quot;&gt;&#xa;  &lt;p class=&quot;MsoNormal&quot; align=&quot;center&quot; style=&quot;margin-bottom:0cm;text-align:center;&#xa;  text-indent:0cm;mso-char-indent-count:0;line-height:normal&quot;&gt;&lt;span style=&quot;font-family:標楷體&quot;&gt;理論&lt;/span&gt;&lt;span lang=&quot;EN-US&quot;&gt;&lt;/span&gt;&lt;/p&gt;&#xa;  &lt;/td&gt;&#xa;  &lt;td width=&quot;497&quot; valign=&quot;bottom&quot; style=&quot;width:372.5pt;border:solid windowtext 1.0pt;&#xa;  border-left:none;mso-border-left-alt:solid windowtext .5pt;mso-border-alt:&#xa;  solid windowtext .5pt;padding:0cm 5.4pt 0cm 5.4pt&quot;&gt;&#xa;  &lt;p class=&quot;MsoNormal&quot; align=&quot;center&quot; style=&quot;margin-bottom:0cm;text-align:center;&#xa;  text-indent:0cm;mso-char-indent-count:0;line-height:normal&quot;&gt;&lt;span style=&quot;font-family:標楷體&quot;&gt;觀察重點&lt;/span&gt;&lt;span lang=&quot;EN-US&quot;&gt;&lt;/span&gt;&lt;/p&gt;&#xa;  &lt;/td&gt;&#xa; &lt;/tr&gt;&#xa; &lt;tr style=&quot;mso-yfti-irow:1;page-break-inside:avoid;height:2.0cm&quot;&gt;&#xa;  &lt;td width=&quot;37&quot; rowspan=&quot;2&quot; style=&quot;width:27.95pt;border:solid windowtext 1.0pt;&#xa;  border-top:none;mso-border-top-alt:solid windowtext .5pt;mso-border-alt:solid windowtext .5pt;&#xa;  padding:0cm 5.4pt 0cm 5.4pt;height:2.0cm&quot;&gt;&#xa;  &lt;p class=&quot;MsoNormal&quot; align=&quot;center&quot; style=&quot;margin-bottom:0cm;text-align:center;&#xa;  text-indent:0cm;mso-char-indent-count:0;line-height:normal&quot;&gt;&lt;span style=&quot;font-family:標楷體&quot;&gt;能動性&lt;/span&gt;&lt;span lang=&quot;EN-US&quot;&gt;&lt;/span&gt;&lt;/p&gt;&#xa;  &lt;/td&gt;&#xa;  &lt;td width=&quot;19&quot; style=&quot;width:14.35pt;border-top:none;border-left:none;&#xa;  border-bottom:solid windowtext 1.0pt;border-right:solid windowtext 1.0pt;&#xa;  mso-border-top-alt:solid windowtext .5pt;mso-border-left-alt:solid windowtext .5pt;&#xa;  mso-border-alt:solid windowtext .5pt;padding:0cm 5.4pt 0cm 5.4pt;layout-flow:&#xa;  vertical-ideographic;height:2.0cm&quot;&gt;&#xa;  &lt;p class=&quot;MsoNormal&quot; align=&quot;center&quot; style=&quot;margin-top:0cm;margin-right:5.65pt;&#xa;  margin-bottom:0cm;margin-left:5.65pt;text-align:center;text-indent:0cm;&#xa;  mso-char-indent-count:0;line-height:normal&quot;&gt;&lt;span style=&quot;font-family:標楷體&quot;&gt;意圖&lt;/span&gt;&lt;b&gt;&lt;span lang=&quot;EN-US&quot;&gt;&lt;/span&gt;&lt;/b&gt;&lt;/p&gt;&#xa;  &lt;/td&gt;&#xa;  &lt;td width=&quot;497&quot; style=&quot;width:372.5pt;border-top:none;border-left:none;&#xa;  border-bottom:solid windowtext 1.0pt;border-right:solid windowtext 1.0pt;&#xa;  mso-border-top-alt:solid windowtext .5pt;mso-border-left-alt:solid windowtext .5pt;&#xa;  mso-border-alt:solid windowtext .5pt;padding:0cm 5.4pt 0cm 5.4pt;height:2.0cm&quot;&gt;&#xa;  &lt;p class=&quot;MsoNormal&quot; style=&quot;margin-bottom:0cm;text-align:justify;text-justify:&#xa;  inter-ideograph;text-indent:0cm;mso-char-indent-count:0;line-height:normal&quot;&gt;&lt;span style=&quot;font-family:標楷體;mso-ascii-font-family:&amp;quot;Times New Roman&amp;quot;;mso-hansi-font-family:&#xa;  &amp;quot;Times New Roman&amp;quot;&quot;&gt;觀察新創企業在平台制定過程中，&lt;b&gt;所意識&lt;/b&gt;之&lt;b&gt;明確的、主動的動機與目標設定&lt;/b&gt;，探究該動機與意圖如何影響後續之企業認知與策略行動。&lt;/span&gt;&lt;span lang=&quot;EN-US&quot;&gt;&lt;/span&gt;&lt;/p&gt;&#xa;  &lt;/td&gt;&#xa; &lt;/tr&gt;&#xa; &lt;tr style=&quot;mso-yfti-irow:2;page-break-inside:avoid;height:2.0cm&quot;&gt;&#xa;  &lt;td width=&quot;19&quot; style=&quot;width:14.35pt;border-top:none;border-left:none;&#xa;  border-bottom:solid windowtext 1.0pt;border-right:solid windowtext 1.0pt;&#xa;  mso-border-top-alt:solid windowtext .5pt;mso-border-left-alt:solid windowtext .5pt;&#xa;  mso-border-alt:solid windowtext .5pt;padding:0cm 5.4pt 0cm 5.4pt;layout-flow:&#xa;  vertical-ideographic;height:2.0cm&quot;&gt;&#xa;  &lt;p class=&quot;MsoNormal&quot; align=&quot;center&quot; style=&quot;margin-top:0cm;margin-right:5.65pt;&#xa;  margin-bottom:0cm;margin-left:5.65pt;text-align:center;text-indent:0cm;&#xa;  mso-char-indent-count:0;line-height:normal&quot;&gt;&lt;span style=&quot;font-family:標楷體&quot;&gt;問題&lt;/span&gt;&lt;span lang=&quot;EN-US&quot;&gt;&lt;/span&gt;&lt;/p&gt;&#xa;  &lt;/td&gt;&#xa;  &lt;td width=&quot;497&quot; style=&quot;width:372.5pt;border-top:none;border-left:none;&#xa;  border-bottom:solid windowtext 1.0pt;border-right:solid windowtext 1.0pt;&#xa;  mso-border-top-alt:solid windowtext .5pt;mso-border-left-alt:solid windowtext .5pt;&#xa;  mso-border-alt:solid windowtext .5pt;padding:0cm 5.4pt 0cm 5.4pt;height:2.0cm&quot;&gt;&#xa;  &lt;p class=&quot;MsoNormal&quot; style=&quot;margin-bottom:0cm;text-align:justify;text-justify:&#xa;  inter-ideograph;text-indent:0cm;mso-char-indent-count:0;line-height:normal&quot;&gt;&lt;span style=&quot;font-family:標楷體;mso-ascii-font-family:&amp;quot;Times New Roman&amp;quot;;mso-hansi-font-family:&#xa;  &amp;quot;Times New Roman&amp;quot;&quot;&gt;觀察新創企業於經濟效益、社會責任、環境永續等多重考量下，所覺察並界定欲解決之產業痛點或數位轉型機會，根據此發展對應策略。&lt;/span&gt;&lt;span lang=&quot;EN-US&quot;&gt;&lt;/span&gt;&lt;/p&gt;&#xa;  &lt;/td&gt;&#xa; &lt;/tr&gt;&#xa; &lt;tr style=&quot;mso-yfti-irow:3;mso-yfti-lastrow:yes&quot;&gt;&#xa;  &lt;td width=&quot;56&quot; colspan=&quot;2&quot; style=&quot;width:42.3pt;border:solid windowtext 1.0pt;&#xa;  border-top:none;mso-border-top-alt:solid windowtext .5pt;mso-border-alt:solid windowtext .5pt;&#xa;  padding:0cm 5.4pt 0cm 5.4pt&quot;&gt;&#xa;  &lt;p class=&quot;MsoNormal&quot; align=&quot;center&quot; style=&quot;margin-bottom:0cm;text-align:center;&#xa;  text-indent:0cm;mso-char-indent-count:0;line-height:normal&quot;&gt;&lt;span style=&quot;font-family:標楷體&quot;&gt;目的&lt;/span&gt;&lt;span lang=&quot;EN-US&quot;&gt;&lt;/span&gt;&lt;/p&gt;&#xa;  &lt;/td&gt;&#xa;  &lt;td width=&quot;497&quot; style=&quot;width:372.5pt;border-top:none;border-left:none;&#xa;  border-bottom:solid windowtext 1.0pt;border-right:solid windowtext 1.0pt;&#xa;  mso-border-top-alt:solid windowtext .5pt;mso-border-left-alt:solid windowtext .5pt;&#xa;  mso-border-alt:solid windowtext .5pt;padding:0cm 5.4pt 0cm 5.4pt&quot;&gt;&#xa;  &lt;p class=&quot;MsoNormal&quot; style=&quot;margin-bottom:0cm;text-align:justify;text-justify:&#xa;  inter-ideograph;text-indent:0cm;mso-char-indent-count:0;line-height:normal;&#xa;  mso-pagination:widow-orphan&quot;&gt;&lt;span style=&quot;font-family:標楷體;mso-ascii-font-family:&#xa;  &amp;quot;Times New Roman&amp;quot;;mso-hansi-font-family:&amp;quot;Times New Roman&amp;quot;&quot;&gt;以數位創新視角，探討平台成效和產業數位轉型的成果，探討企業建構平台主導的創新產業生態系過程中，所形塑之生態系運作型態，包含供應鏈緊密協作方式、產業經營模式與新生產流程等，並評估平台對產業轉型與價值再造的貢獻。&lt;/span&gt;&lt;span lang=&quot;EN-US&quot;&gt;&lt;/span&gt;&lt;/p&gt;&#xa;  &lt;/td&gt;&#xa; &lt;/tr&gt;&#xa;&lt;/tbody&gt;&lt;/table&gt;" style="text;whiteSpace=wrap;html=1;" vertex="1" parent="1">
          <mxGeometry x="-100" y="-220" width="560" height="300" as="geometry" />
        </mxCell>
      </root>
    </mxGraphModel>
  </diagram>
</mxfile>
